<svg width="360" height="351" viewBox="0 0 360 351" fill="none" xmlns="http://www.w3.org/2000/svg">
<path d="M158.573 154.736C171.443 105.066 195.383 27.0362 247.353 6.05615C291.003 -11.5538 342.093 9.85615 336.823 62.2662C333.923 91.0562 304.263 107.916 279.643 90.8762C291.073 150.766 310.463 209.196 324.773 268.556C331.413 283.456 356.803 276.026 359.263 279.966C359.483 283.826 360.713 289.056 357.453 291.746H268.993L270.243 279.026C278.753 277.666 301.383 280.996 302.383 268.476C302.653 265.096 301.033 258.156 300.303 254.456C294.743 226.356 283.533 197.486 277.543 169.276L191.903 169.416C178.543 223.906 152.863 311.806 100.463 340.696C72.7134 355.996 31.4534 355.036 10.9334 328.316C-13.5266 296.476 4.4634 239.186 50.8434 254.486V71.5961C50.8434 59.9561 28.4634 58.8462 20.2434 58.9662C20.6134 54.9562 18.7734 49.8162 22.2434 46.9862H99.4034C102.263 48.6262 102.273 56.9462 100.153 58.3862C92.7834 59.7562 70.8034 59.4962 70.8034 70.2662V154.736H158.603H158.573ZM195.823 154.736H272.983C263.463 119.156 245.513 58.2262 281.213 38.6162C292.053 32.6662 305.113 32.3162 316.563 37.0162L326.223 40.9762C316.703 7.51616 274.103 2.91615 248.613 21.9362C213.993 47.7562 207.333 115.726 195.843 154.736H195.823ZM154.583 169.376H70.7734V285.776C70.7734 288.846 66.7134 299.366 64.7034 302.316C52.7934 319.756 30.3734 323.076 13.5834 310.386C24.5834 347.636 73.7734 345.926 98.1034 322.416C133.893 287.846 141.303 215.326 154.573 169.376H154.583Z" fill="black"/>
</svg>
